# xmcd
#
# Track frame offsets:
#	150
#	15561
#	28082
#	43598
#	63383
#	79511
#	96570
#	115749
#	133847
#	149628
#	166106
#
# Disc length: 2695 seconds
#
# Revision: 0
# Processed by: cddbd v1.5PL3 Copyright (c) Steve Scherf et al.
# Submitted via: dBpowerAMP V4.0
#
DISCID=930a850b
DTITLE=Rafi Ginat - Free Choices
DYEAR=2004
DGENRE=covers
TTITLE0=The Locomotive - Hakatar
TTITLE1=Sixteen Tons
TTITLE2=I wish I was a pirate
TTITLE3=Mule Train
TTITLE4=The Red Rock
TTITLE5=The Devil Went Down To Georgia
TTITLE6=Sinner Man
TTITLE7=Prophet go away - Hoze Lech Brach
TTITLE8=Noah
TTITLE9=Joshua Fit the Battle of Jericho
TTITLE10=Little Pinkas
EXTD=
EXTT0=
EXTT1=
EXTT2=
EXTT3=
EXTT4=
EXTT5=
EXTT6=
EXTT7=
EXTT8=
EXTT9=
EXTT10=
PLAYORDER=
